<svg width="154" height="48" viewBox="0 0 154 48" fill="none" xmlns="http://www.w3.org/2000/svg">
<mask id="mask0_1191_638" style="mask-type:luminance" maskUnits="userSpaceOnUse" x="0" y="0" width="154" height="48">
<path d="M153.802 0H0V48H153.802V0Z" fill="white"/>
</mask>
<g mask="url(#mask0_1191_638)">
<path d="M81.0568 12.0601C81.0568 13.7898 79.6635 15.1832 77.9338 15.1832C76.2038 15.1832 74.8105 13.7898 74.8105 12.0601C74.8105 10.3303 76.1558 8.93693 77.9338 8.93693C79.7115 8.985 81.0568 10.3784 81.0568 12.0601ZM68.1798 18.3544C68.1798 18.6426 68.1798 19.1231 68.1798 19.1231C68.1798 19.1231 66.6905 17.2012 63.5191 17.2012C58.2821 17.2012 54.1978 21.1892 54.1978 26.7147C54.1978 32.1922 58.2338 36.2283 63.5191 36.2283C66.7385 36.2283 68.1798 34.2583 68.1798 34.2583V35.075C68.1798 35.4593 68.4681 35.7477 68.8525 35.7477H72.7445V17.6817C72.7445 17.6817 69.1888 17.6817 68.8525 17.6817C68.4681 17.6817 68.1798 18.018 68.1798 18.3544ZM68.1798 29.9339C67.4591 30.991 66.0178 31.9039 64.2881 31.9039C61.2128 31.9039 58.8585 29.982 58.8585 26.7147C58.8585 23.4474 61.2128 21.5255 64.2881 21.5255C65.9698 21.5255 67.5071 22.4865 68.1798 23.4955V29.9339ZM75.6275 17.6817H80.2401V35.7477H75.6275V17.6817ZM144.528 17.2012C141.357 17.2012 139.867 19.1231 139.867 19.1231V8.985H135.255V35.7477C135.255 35.7477 138.81 35.7477 139.147 35.7477C139.531 35.7477 139.819 35.4113 139.819 35.075V34.2583C139.819 34.2583 141.309 36.2283 144.48 36.2283C149.717 36.2283 153.801 32.1922 153.801 26.7147C153.801 21.2372 149.717 17.2012 144.528 17.2012ZM143.759 31.8559C141.982 31.8559 140.588 30.9429 139.867 29.8859V23.4474C140.588 22.4865 142.126 21.4775 143.759 21.4775C146.834 21.4775 149.189 23.3994 149.189 26.6667C149.189 29.9339 146.834 31.8559 143.759 31.8559ZM132.852 25.033V35.7957H128.24V25.5616C128.24 22.5826 127.279 21.3814 124.684 21.3814C123.291 21.3814 121.849 22.1021 120.937 23.1592V35.7477H116.324V17.6817H119.976C120.36 17.6817 120.648 18.018 120.648 18.3544V19.1231C121.994 17.7297 123.771 17.2012 125.549 17.2012C127.567 17.2012 129.249 17.7778 130.594 18.9309C132.228 20.2763 132.852 22.006 132.852 25.033ZM105.129 17.2012C101.958 17.2012 100.468 19.1231 100.468 19.1231V8.985H95.8555V35.7477C95.8555 35.7477 99.4111 35.7477 99.7475 35.7477C100.132 35.7477 100.42 35.4113 100.42 35.075V34.2583C100.42 34.2583 101.91 36.2283 105.081 36.2283C110.318 36.2283 114.402 32.1922 114.402 26.7147C114.45 21.2372 110.366 17.2012 105.129 17.2012ZM104.36 31.8559C102.582 31.8559 101.189 30.9429 100.468 29.8859V23.4474C101.189 22.4865 102.726 21.4775 104.36 21.4775C107.435 21.4775 109.789 23.3994 109.789 26.6667C109.789 29.9339 107.435 31.8559 104.36 31.8559ZM91.8675 17.2012C93.2611 17.2012 93.9818 17.4414 93.9818 17.4414V21.7177C93.9818 21.7177 90.1378 20.4204 87.7355 23.1592V35.7957H83.1228V17.6817C83.1228 17.6817 86.6785 17.6817 87.0148 17.6817C87.3991 17.6817 87.6875 18.018 87.6875 18.3544V19.1231C88.5521 18.1141 90.4261 17.2012 91.8675 17.2012ZM43.9638 34.114C43.7235 33.5377 43.4831 32.9129 43.2431 32.3844C42.8585 31.5195 42.4741 30.7027 42.1378 29.9339L42.0898 29.8859C38.7745 22.6787 35.2188 15.3754 31.4712 8.16817L31.3271 7.87987C30.9427 7.15917 30.5583 6.3904 30.1739 5.62163C29.6934 4.75677 29.2129 3.84383 28.4442 2.97898C26.9066 1.05706 24.6964 0 22.3421 0C19.9397 0 17.7775 1.05706 16.1919 2.88288C15.4712 3.74773 14.9427 4.66067 14.4622 5.52553C14.0778 6.2943 13.6934 7.06307 13.309 7.7838L13.1649 8.07207C9.4652 15.2793 5.8616 22.5826 2.54628 29.7898L2.49823 29.8859C2.16189 30.6547 1.77751 31.4715 1.39313 32.3363C1.15288 32.8649 0.912643 33.4413 0.672403 34.066C0.0477795 35.844 -0.144412 37.5257 0.0958275 39.2553C0.624357 42.859 3.02676 45.886 6.34206 47.2313C7.59133 47.7597 8.88863 48 10.234 48C10.6184 48 11.0988 47.952 11.4832 47.904C13.0688 47.7117 14.7024 47.1833 16.288 46.2703C18.258 45.165 20.1319 43.5797 22.246 41.2733C24.3601 43.5797 26.282 45.165 28.2039 46.2703C29.7895 47.1833 31.4232 47.7117 33.0087 47.904C33.3931 47.952 33.8735 48 34.2581 48C35.6035 48 36.9488 47.7597 38.1498 47.2313C41.5131 45.886 43.8675 42.8107 44.3961 39.2553C44.7805 37.5737 44.5885 35.892 43.9638 34.114ZM22.294 36.6127C19.6994 33.3453 18.0178 30.2703 17.4412 27.6757C17.2009 26.5706 17.1529 25.6096 17.297 24.7447C17.3931 23.976 17.6814 23.3033 18.0658 22.7267C18.9787 21.4294 20.5163 20.6126 22.294 20.6126C24.0718 20.6126 25.6574 21.3814 26.5223 22.7267C26.9066 23.3033 27.1949 23.976 27.291 24.7447C27.4352 25.6096 27.3871 26.6186 27.1469 27.6757C26.5703 30.2222 24.8886 33.2973 22.294 36.6127ZM41.4651 38.871C41.1288 41.3693 39.4471 43.5317 37.0928 44.4923C35.9398 44.973 34.6905 45.117 33.4411 44.973C32.24 44.8287 31.0388 44.4443 29.7895 43.7237C28.0598 42.7627 26.3301 41.2733 24.312 39.063C27.4832 35.1713 29.4051 31.6156 30.1259 28.4444C30.4622 26.955 30.5102 25.6096 30.3661 24.3604C30.1739 23.1592 29.7415 22.0541 29.0688 21.0931C27.5793 18.9309 25.0808 17.6817 22.294 17.6817C19.5072 17.6817 17.0087 18.979 15.5193 21.0931C14.8466 22.0541 14.4141 23.1592 14.222 24.3604C14.0298 25.6096 14.0778 27.003 14.4622 28.4444C15.1829 31.6156 17.1529 35.2193 20.276 39.111C18.306 41.3213 16.5283 42.8107 14.7985 43.7717C13.5493 44.4923 12.3481 44.877 11.1469 45.021C9.8496 45.165 8.60033 44.973 7.49523 44.5407C5.14086 43.5797 3.4592 41.4173 3.12285 38.919C2.97871 37.7177 3.07481 36.5167 3.5553 35.1713C3.69943 34.6907 3.93966 34.2103 4.1799 33.6337C4.51626 32.8649 4.90063 32.048 5.28503 31.2312L5.33306 31.1351C8.6484 23.976 12.2039 16.6727 15.9036 9.56157L16.0478 9.27327C16.4322 8.55257 16.8166 7.7838 17.2009 7.06307C17.5853 6.2943 18.0178 5.57357 18.5463 4.94893C19.5553 3.7958 20.9006 3.17117 22.3901 3.17117C23.8796 3.17117 25.225 3.7958 26.234 4.94893C26.7625 5.57357 27.1949 6.2943 27.5793 7.06307C27.9637 7.7838 28.3481 8.55257 28.7325 9.27327L28.8766 9.56157C32.5283 16.7207 36.0838 24.024 39.3991 31.1832V31.2312C39.7835 32 40.1198 32.8649 40.5041 33.6337C40.7445 34.2103 40.9848 34.6907 41.1288 35.1713C41.5131 36.4203 41.6575 37.6217 41.4651 38.871Z" fill="white"/>
</g>
</svg>
