<svg width="172" height="49" viewBox="0 0 172 49" fill="none" xmlns="http://www.w3.org/2000/svg">
<mask id="mask0_1191_645" style="mask-type:luminance" maskUnits="userSpaceOnUse" x="0" y="0" width="172" height="49">
<path d="M171.008 0H0.986084V48.3018H171.008V0Z" fill="white"/>
</mask>
<g mask="url(#mask0_1191_645)">
<path d="M9.73622 0.23795C6.25849 1.69452 2.43085 5.80981 1.22224 10.9753C-0.307964 17.5201 6.05972 20.2879 6.58202 19.3803C7.19662 18.314 5.44102 17.9533 5.07929 14.5576C4.61218 10.1718 6.65115 5.27078 9.21735 3.1206C9.69436 2.72131 9.67162 3.27731 9.67162 4.30561L9.57008 26.1015C9.57008 30.7643 9.37751 32.2369 9.03165 33.6915C8.6811 35.166 8.11781 36.1626 8.54478 36.546C9.02179 36.9753 11.0586 35.9539 12.2372 34.3087C13.651 32.335 14.1456 29.965 14.2347 27.391C14.3421 24.2884 14.3378 19.365 14.3421 16.5564L14.2991 1.9049C14.2777 0.792884 11.1932 -0.373872 9.73773 0.235803L9.73622 0.23795ZM133.31 22.0581C133.198 24.4822 132.661 26.3767 131.996 27.7133C130.707 30.3006 128.031 31.1038 126.895 27.3848C126.277 25.3574 126.247 21.9716 126.692 19.1424C127.143 16.2604 128.41 14.0836 130.505 14.28C132.571 14.4741 133.538 17.136 133.31 22.0583L133.31 22.0581ZM98.4805 37.0981C98.4527 41.1256 97.8187 44.657 96.4592 45.6851C94.5315 47.1395 91.94 46.0483 92.4767 43.1093C92.9517 40.5084 95.1967 37.8525 98.4862 34.6072L98.4809 37.1001L98.4805 37.0981ZM97.9539 22.0354C97.8358 24.2431 97.2639 26.4611 96.6394 27.7144C95.3503 30.3016 92.6558 31.1105 91.5392 27.3859C90.7754 24.8409 90.9582 21.5472 91.3362 19.4719C91.8266 16.7793 93.0151 14.2811 95.1487 14.2811C97.2237 14.2811 98.2464 16.5573 97.9542 22.0356L97.9539 22.0354ZM77.7782 22.0017C77.6514 24.3399 77.1956 26.2947 76.4636 27.7141C75.139 30.2838 72.519 31.0985 71.3631 27.3857C70.5302 24.7083 70.8137 21.0577 71.1605 19.0857C71.6747 16.1593 72.9624 14.0844 74.973 14.2813C77.0382 14.4831 78.0422 17.1371 77.7785 22.0021L77.7782 22.0017ZM170.24 24.7327C169.735 24.7327 169.505 25.2531 169.314 26.129C168.653 29.1746 167.958 29.8643 167.06 29.8643C166.059 29.8643 165.159 28.3562 164.928 25.3375C164.747 22.9638 164.776 18.5937 165.008 14.2468C165.055 13.3537 164.809 12.4699 162.414 11.5998C161.383 11.2254 159.884 10.6746 159.138 12.4753C157.03 17.563 156.206 21.6026 156.012 23.2433C156.002 23.3283 155.897 23.3455 155.879 23.1472C155.755 21.8329 155.479 19.4447 155.445 14.4266C155.438 13.4477 155.231 12.6144 154.15 11.9321C153.449 11.4895 151.32 10.7063 150.553 11.638C149.889 12.4001 149.12 14.4503 148.321 16.8804L147.218 20.1917L147.235 12.8406C147.238 12.0779 146.715 11.8239 146.558 11.778C145.847 11.5719 144.449 11.2276 143.853 11.2276C143.12 11.2276 142.941 11.6372 142.941 12.2337L142.825 24.1025L142.827 24.7873C142.422 27.0173 141.108 30.0447 139.678 30.0447C138.248 30.0447 137.574 28.7792 137.574 22.9947C137.574 19.6205 137.676 18.1532 137.726 15.713L137.807 12.9828C137.796 12.2314 136.498 11.8529 135.893 11.713C135.285 11.5719 134.758 11.5172 134.346 11.5405C133.763 11.5734 133.35 11.9562 133.35 12.4823L133.353 13.3011C132.602 12.1204 131.394 11.299 130.59 11.061C128.425 10.418 126.165 10.988 124.461 13.3724C123.106 15.2671 122.29 17.4132 121.971 20.4966C121.736 22.7507 121.812 25.0365 122.23 26.9696C121.725 29.1507 120.789 30.0447 119.763 30.0447C118.275 30.0447 117.195 27.6145 117.32 23.4112C117.403 20.6466 117.956 18.7064 118.561 15.8998C118.819 14.7031 118.61 14.0767 118.084 13.4765C117.602 12.9259 116.576 12.6446 115.099 12.9907C114.048 13.2376 112.545 13.5027 111.169 13.7064C111.169 13.7064 111.252 13.3754 111.32 12.7915C111.678 9.73021 108.352 9.97839 107.29 10.956C106.657 11.5399 106.225 12.2284 106.061 13.4664C105.802 15.4311 107.404 16.3576 107.404 16.3576C106.878 18.762 105.59 21.9079 104.259 24.1804C103.547 25.398 103.001 26.3005 102.298 27.2597L102.292 26.1899L102.373 15.7138L102.455 13.0124C102.447 12.4628 102.126 12.2554 101.459 11.9927C100.868 11.7604 100.171 11.5994 99.4476 11.5434C98.5339 11.4721 97.9834 11.9566 97.9979 12.5296C98.0009 12.6378 98.0009 13.302 98.0009 13.302C97.2495 12.1212 96.0413 11.2999 95.2376 11.0618C93.0724 10.4191 90.813 10.9888 89.1086 13.3732C87.7542 15.268 86.8673 17.9269 86.6184 20.4738C86.3823 22.8477 86.4272 24.865 86.7466 26.5641C86.4021 28.2658 85.4122 30.0453 84.2932 30.0453C82.8623 30.0453 82.0482 28.7798 82.0482 22.9954C82.0482 19.6211 82.1495 18.1538 82.1991 15.7136L82.2807 12.9834C82.2699 12.232 80.9711 11.8536 80.3667 11.7134C79.7344 11.5674 79.186 11.5133 78.7691 11.5442C78.2156 11.5854 77.8265 12.0809 77.8265 12.4501V13.3016C77.0751 12.1208 75.8673 11.2995 75.0632 11.0614C72.898 10.4187 70.6513 10.9977 68.9343 13.3728C67.8146 14.9217 66.9083 16.6387 66.444 20.4399C66.3092 21.5384 66.2498 22.5669 66.2572 23.5284C65.8108 26.2587 63.8391 29.4054 62.226 29.4054C61.2821 29.4054 60.3832 27.5746 60.3832 23.6731C60.3832 18.4758 60.7049 11.0767 60.7595 10.3633L63.1917 10.324C64.2081 10.3128 65.1288 10.3369 66.4826 10.2675C67.1615 10.2332 67.8156 7.79579 67.1152 7.49393C66.7973 7.35741 64.5522 7.23783 63.6623 7.21915C62.914 7.20198 60.8306 7.04808 60.8306 7.04808L61.0611 1.61788C61.098 1.18552 60.5385 0.963121 60.2175 0.827876C59.4373 0.497921 58.7392 0.339921 57.9117 0.169468C56.7689 -0.0662443 56.2504 0.164316 56.1487 1.12906C55.9985 2.59315 55.9169 6.88147 55.9169 6.88147C55.0784 6.88147 52.2131 6.71748 51.3742 6.71748C50.5947 6.71748 49.7534 10.07 50.8308 10.1115L55.6647 10.2446L55.6033 20.8038C54.8147 24.9133 52.0377 27.1332 52.0377 27.1332C52.6341 24.4146 51.4158 22.3731 49.2211 20.6447C48.4127 20.0078 46.8168 18.8022 45.0306 17.481C45.0306 17.481 46.0651 16.4618 46.9841 14.4112C47.6339 12.9585 47.662 11.2963 46.0671 10.9296C43.4313 10.3236 41.2584 12.2591 40.61 14.3258C40.1078 15.9266 40.3755 17.1144 41.3593 18.3488C41.4311 18.4389 41.5089 18.5312 41.5894 18.6235C40.9944 19.7703 40.1769 21.3143 39.4849 22.5113C37.5636 25.8355 36.1119 28.4649 35.0154 28.4649C34.1385 28.4649 34.1503 25.7954 34.1503 23.2959C34.1503 21.1412 34.3092 17.9018 34.4365 14.5479C34.4785 13.4387 33.9238 12.8069 32.9939 12.2344C32.4293 11.8866 31.2232 11.2031 30.5251 11.2031C29.4796 11.2031 26.4645 11.3452 23.6154 19.587C23.2562 20.626 22.5506 22.5186 22.5506 22.5186L22.6113 12.6077C22.6113 12.3754 22.4877 12.1505 22.2041 11.997C21.7241 11.7363 20.4438 11.2031 19.3017 11.2031C18.7586 11.2031 18.4872 11.4558 18.4872 11.9594L18.3878 27.4653C18.3878 28.6435 18.4185 30.02 18.5351 30.6189C18.6517 31.2179 18.8391 31.7103 19.0718 32.0014C19.3045 32.2925 19.5732 32.5141 20.0168 32.6055C20.4296 32.6905 22.6895 32.9808 22.8071 32.1171C22.9479 31.0824 22.9531 29.9624 24.1402 25.7872C25.9877 19.2869 28.3966 16.1151 29.529 14.9887C29.727 14.7918 29.953 14.78 29.9423 15.1024L29.6095 23.1141C29.3025 31.2105 30.7756 32.7114 32.8805 32.7114C34.4906 32.7114 36.7606 31.1114 39.1918 27.0611L43.2404 20.2785L45.6324 22.481C47.5544 24.3051 48.1853 26.0386 47.7667 27.6826C47.4464 28.9397 46.2405 30.2372 44.0941 28.976C43.4688 28.6089 43.2015 28.3249 42.5726 27.9106C42.2348 27.6882 41.7186 27.6216 41.409 27.8547C40.6056 28.4606 40.1461 29.2312 39.8834 30.1855C39.6278 31.1139 40.558 31.6045 41.5217 32.0317C42.3519 32.4009 44.1353 32.7358 45.2731 32.774C49.7055 32.9243 53.256 30.6337 55.7278 24.7312C56.1699 29.8289 58.0533 32.7137 61.3247 32.7137C63.5121 32.7137 65.7048 29.8864 66.6638 27.1051C66.9388 28.2386 67.3464 29.2248 67.8726 30.0584C70.3937 34.0527 75.2839 33.1926 77.7406 29.8012C78.5 28.7532 78.6158 28.3766 78.6158 28.3766C78.9743 31.5791 81.5531 32.698 83.0297 32.698C84.6833 32.698 86.391 31.9162 87.5878 29.2218C87.728 29.5142 87.881 29.7935 88.0484 30.0582C90.5691 34.0524 95.4597 33.1924 97.916 29.801C98.02 29.6584 98.1213 29.514 98.2202 29.368L98.2924 31.4718L96.0309 33.5459C92.2446 37.0193 89.3659 39.6551 89.1539 42.7239C88.8822 46.6374 92.0557 48.0914 94.4567 48.282C97.0067 48.4842 99.1903 47.0754 100.532 45.1048C101.713 43.3696 102.485 39.6353 102.429 35.9472L102.34 30.5794C103.671 29.0337 105.17 27.0808 106.55 24.7946C108.055 22.3031 109.667 18.9572 110.493 16.3532C110.493 16.3532 111.893 16.3652 113.388 16.2673C113.867 16.2362 114.004 16.3338 113.916 16.6842C113.809 17.1077 112.027 23.9809 113.653 28.56C114.766 31.6942 117.276 32.7032 118.764 32.7032C120.505 32.7032 122.171 31.3879 123.064 29.4347C123.171 29.6524 123.284 29.8633 123.407 30.0577C125.928 34.0521 130.801 33.1871 133.275 29.8006C133.833 29.0363 134.15 28.376 134.15 28.376C134.681 31.6906 137.259 32.7146 138.735 32.7146C140.273 32.7146 141.732 32.0841 142.917 29.2819C142.966 30.5156 143.044 31.5244 143.167 31.8423C143.242 32.0368 143.679 32.2809 143.997 32.399C145.404 32.9207 146.839 32.6738 147.368 32.5664C147.735 32.4919 148.022 32.1972 148.061 31.4351C148.164 29.4347 148.101 26.0738 148.705 23.5759C149.723 19.3839 150.672 17.7582 151.123 16.9532C151.375 16.5023 151.659 16.4276 151.67 16.9051C151.691 17.8711 151.739 20.707 152.133 24.5181C152.423 27.3206 152.81 28.9773 153.107 29.5015C153.956 31.0008 155.004 31.0719 155.855 31.0719C156.398 31.0719 157.533 30.9216 157.432 29.9678C157.382 29.5028 157.469 26.6288 158.472 22.4988C159.128 19.8019 160.22 17.3651 160.614 16.4742C160.76 16.1458 160.827 16.4047 160.825 16.4549C160.742 18.3123 160.556 24.3871 161.312 27.7096C162.338 32.2107 165.305 32.7143 166.339 32.7143C168.546 32.7143 170.351 31.0356 170.959 26.6176C171.106 25.5543 170.889 24.7334 170.239 24.7334" fill="white"/>
</g>
</svg>
