<svg width="225" height="48" viewBox="0 0 225 48" fill="none" xmlns="http://www.w3.org/2000/svg">
<mask id="mask0_1191_631" style="mask-type:luminance" maskUnits="userSpaceOnUse" x="0" y="0" width="225" height="48">
<path d="M224.744 0H0V48H224.744V0Z" fill="white"/>
</mask>
<g mask="url(#mask0_1191_631)">
<path d="M79.3303 27.6466L77.9907 31.442H77.879C77.6557 30.5861 77.2467 29.2838 76.5767 27.721L69.3953 9.67449H62.3627V38.4373H67.014V20.6885C67.014 19.5722 67.014 18.3071 66.9767 16.7443C66.9397 15.9629 66.865 15.3675 66.828 14.921H66.9397C67.1627 16.0373 67.4233 16.8559 67.6093 17.3768L76.242 38.363H79.5163L88.0743 17.1908C88.2603 16.7071 88.4467 15.7396 88.6327 14.921H88.7443C88.6327 17.042 88.558 18.9396 88.521 20.0931V38.3257H93.4697V9.60009H86.6977L79.3303 27.6466ZM98.158 17.7117H102.995V38.3257H98.158V17.7117ZM100.614 9.00472C99.7953 9.00472 99.1257 9.30242 98.5673 9.82336C98.0093 10.3443 97.7117 11.014 97.7117 11.8327C97.7117 12.614 98.0093 13.2838 98.5673 13.8047C99.1257 14.3257 99.7953 14.5861 100.614 14.5861C101.433 14.5861 102.14 14.2885 102.66 13.8047C103.219 13.2838 103.516 12.614 103.516 11.8327C103.516 11.0513 103.219 10.3815 102.66 9.82336C102.177 9.30242 101.47 9.00472 100.614 9.00472ZM120.149 17.5257C119.256 17.3396 118.326 17.228 117.433 17.228C115.237 17.228 113.228 17.7117 111.553 18.6792C109.879 19.6466 108.54 20.9861 107.684 22.6606C106.791 24.3722 106.344 26.3443 106.344 28.6141C106.344 30.5861 106.791 32.335 107.647 33.935C108.502 35.4977 109.693 36.763 111.293 37.6187C112.819 38.4747 114.605 38.921 116.614 38.921C118.921 38.921 120.893 38.4373 122.456 37.5443L122.493 37.507V33.042L122.307 33.1908C121.6 33.7117 120.781 34.1583 119.963 34.4187C119.107 34.7163 118.326 34.8653 117.656 34.8653C115.721 34.8653 114.195 34.307 113.116 33.0792C112 31.8885 111.442 30.2513 111.442 28.2047C111.442 26.0838 112 24.4094 113.153 23.1815C114.307 21.9536 115.833 21.321 117.693 21.321C119.256 21.321 120.856 21.842 122.307 22.8838L122.493 23.0327V18.3071L122.456 18.2699C121.823 18.0094 121.116 17.7117 120.149 17.5257ZM136.112 17.3768C134.921 17.3768 133.805 17.7489 132.837 18.5303C132.019 19.2001 131.46 20.1675 130.977 21.321H130.94V17.7117H126.102V38.3257H130.94V27.7954C130.94 26.0094 131.312 24.521 132.13 23.442C132.949 22.3257 133.991 21.7675 135.256 21.7675C135.702 21.7675 136.149 21.8792 136.707 21.9536C137.228 22.1024 137.6 22.2513 137.86 22.4373L138.047 22.5861V17.7489L137.935 17.7117C137.6 17.4885 136.93 17.3768 136.112 17.3768ZM149.284 17.2652C145.898 17.2652 143.181 18.2699 141.284 20.242C139.349 22.2141 138.419 24.9303 138.419 28.3536C138.419 31.5536 139.386 34.1583 141.247 36.056C143.107 37.9163 145.637 38.8837 148.8 38.8837C152.112 38.8837 154.753 37.879 156.651 35.87C158.586 33.8607 159.516 31.1815 159.516 27.8699C159.516 24.5954 158.623 21.9908 156.8 20.0931C155.051 18.1954 152.484 17.2652 149.284 17.2652ZM153.153 33.1164C152.26 34.27 150.847 34.828 149.098 34.828C147.349 34.828 145.935 34.27 144.93 33.042C143.926 31.8885 143.442 30.2141 143.442 28.0931C143.442 25.8978 143.963 24.2234 144.93 23.0327C145.935 21.842 147.312 21.2466 149.06 21.2466C150.772 21.2466 152.112 21.8047 153.079 22.9582C154.047 24.1117 154.567 25.7861 154.567 27.9815C154.493 30.214 154.084 31.9629 153.153 33.1164ZM170.307 26.2699C168.781 25.6373 167.814 25.1536 167.367 24.7443C166.995 24.3722 166.809 23.8513 166.809 23.1815C166.809 22.6234 167.033 22.0652 167.591 21.6931C168.149 21.321 168.781 21.135 169.712 21.135C170.53 21.135 171.386 21.2838 172.205 21.5071C173.023 21.7303 173.767 22.0652 174.363 22.5117L174.549 22.6606V18.121L174.437 18.0838C173.879 17.8606 173.135 17.6373 172.242 17.4513C171.349 17.3024 170.53 17.228 169.86 17.228C167.553 17.228 165.656 17.7861 164.167 19.014C162.679 20.1675 161.972 21.7303 161.972 23.5536C161.972 24.521 162.121 25.3768 162.456 26.0838C162.791 26.7908 163.274 27.4606 163.944 28.0187C164.614 28.5396 165.581 29.135 166.921 29.6931C168.037 30.1768 168.893 30.5489 169.414 30.8466C169.935 31.1443 170.27 31.4792 170.53 31.7396C170.716 32.0373 170.828 32.4094 170.828 32.8931C170.828 34.27 169.786 34.9397 167.665 34.9397C166.847 34.9397 165.991 34.7907 164.986 34.456C163.981 34.121 163.051 33.6373 162.27 33.0792L162.084 32.9303V37.656L162.195 37.693C162.902 38.028 163.758 38.2513 164.8 38.5117C165.842 38.6977 166.772 38.8467 167.591 38.8467C170.084 38.8467 172.13 38.2883 173.581 37.0607C175.07 35.87 175.851 34.3443 175.851 32.3722C175.851 30.9954 175.479 29.7675 174.66 28.8373C173.581 27.9443 172.242 27.014 170.307 26.2699ZM188.614 17.2652C185.228 17.2652 182.512 18.2699 180.614 20.242C178.716 22.2141 177.749 24.9303 177.749 28.3536C177.749 31.5536 178.716 34.1583 180.577 36.056C182.437 37.9163 184.967 38.8837 188.13 38.8837C191.442 38.8837 194.084 37.879 195.981 35.87C197.916 33.8607 198.847 31.1815 198.847 27.8699C198.847 24.5954 197.953 21.9908 196.13 20.0931C194.381 18.1954 191.814 17.2652 188.614 17.2652ZM192.447 33.1164C191.553 34.27 190.14 34.828 188.391 34.828C186.605 34.828 185.228 34.27 184.223 33.042C183.219 31.8885 182.735 30.2141 182.735 28.0931C182.735 25.8978 183.256 24.2234 184.223 23.0327C185.228 21.842 186.605 21.2466 188.353 21.2466C190.028 21.2466 191.405 21.8047 192.372 22.9582C193.34 24.1117 193.86 25.7861 193.86 27.9815C193.86 30.214 193.377 31.9629 192.447 33.1164ZM224.707 21.6931V17.7117H219.833V11.6094L219.684 11.6466L215.07 13.0234L214.958 13.0606V17.7117H207.665V15.1071C207.665 13.9164 207.963 12.9861 208.484 12.3908C209.005 11.7954 209.786 11.4978 210.754 11.4978C211.423 11.4978 212.13 11.6466 212.912 11.9815L213.098 12.0931V7.88846L212.986 7.85126C212.316 7.62799 211.423 7.47916 210.27 7.47916C208.819 7.47916 207.553 7.81406 206.4 8.37219C205.247 9.00472 204.391 9.86056 203.758 11.0141C203.126 12.1303 202.791 13.3954 202.791 14.8466V17.7117H199.405V21.6559H202.791V38.3257H207.665V21.6931H214.958V32.2978C214.958 36.6513 217.005 38.8467 221.098 38.8467C221.767 38.8467 222.474 38.735 223.144 38.6233C223.851 38.4747 224.372 38.2883 224.67 38.1397L224.707 38.1023V34.121L224.521 34.27C224.223 34.456 223.963 34.6047 223.516 34.7163C223.144 34.828 222.809 34.8653 222.549 34.8653C221.581 34.8653 220.912 34.642 220.428 34.0837C219.981 33.563 219.758 32.7071 219.758 31.442V21.6931H224.707Z" fill="white"/>
<path d="M0 0H22.8093V22.8093H0V0Z" fill="white"/>
<path d="M25.1908 0H48V22.8093H25.1908V0Z" fill="white"/>
<path d="M0 25.1908H22.8093V48H0V25.1908Z" fill="white"/>
<path d="M25.1908 25.1908H48V48H25.1908V25.1908Z" fill="white"/>
</g>
</svg>
