<svg width="192" height="46" viewBox="0 0 192 46" fill="none" xmlns="http://www.w3.org/2000/svg">
<path d="M75.1908 16.2838H81.2315V35.2577H75.1908V16.2838Z" fill="white"/>
<path d="M82.4928 16.2838H88.3108V18.8779H88.422C89.8303 16.8396 91.6459 15.728 94.2771 15.728C98.4275 15.728 100.873 18.6926 100.873 22.9172V35.2577H94.833V24.1402C94.833 22.139 93.8324 20.7677 91.8686 20.7677C89.8674 20.7677 88.5332 22.4355 88.5332 24.7701V35.2577H82.4928V16.2838Z" fill="white"/>
<path d="M81.8342 11.2077C81.8342 9.20646 80.2122 7.58435 78.2109 7.58435C76.2097 7.58435 74.5876 9.20646 74.5876 11.2077C74.5876 13.2088 76.2097 14.8309 78.2109 14.8309C80.2122 14.8309 81.8342 13.2088 81.8342 11.2077Z" fill="white"/>
<path d="M143.357 16.0099C143.185 15.9944 142.987 15.9875 142.756 15.9875C140.458 15.9875 138.902 16.9881 137.568 19.2486H137.457V16.284H131.676V35.2577H137.716V26.7343C137.716 22.7851 139.903 20.955 143.357 21.2744V16.0099Z" fill="white"/>
<path d="M173 23.2878C170.591 22.8432 168.442 22.6579 168.442 21.3239C168.442 20.1379 169.591 19.5821 171.073 19.5821C172.74 19.5821 173.89 20.1009 174.112 21.8057H179.671C179.374 18.0628 176.483 15.728 171.11 15.728C166.626 15.728 162.92 17.8033 162.92 21.8057C162.92 26.2524 166.441 27.1418 169.739 27.6978C172.259 28.1426 174.556 28.3279 174.556 30.0324C174.556 31.2554 173.408 31.9224 171.592 31.9224C169.77 31.9224 168.565 31.1517 168.196 29.5878H162.44C162.864 33.4884 166.287 35.8507 171.629 35.8507C176.595 35.8507 180.264 33.7012 180.264 29.5509C180.264 24.696 176.335 23.8438 173 23.2878Z" fill="white"/>
<path d="M152.728 20.0266C154.691 20.0266 156.1 21.4719 156.322 23.7326H148.836C149.244 21.4719 150.43 20.0266 152.728 20.0266ZM153.061 31.4774C150.578 31.4774 149.17 29.8841 148.799 27.327H162.437C162.474 23.4731 161.362 20.1748 159.102 18.0997C157.471 16.6174 155.321 15.7279 152.616 15.7279C146.835 15.7279 142.87 20.0636 142.87 25.7337C142.87 31.4774 146.724 35.8133 152.987 35.8133C155.395 35.8133 157.323 35.1833 158.916 34.0718C160.584 32.923 161.695 31.2923 162.103 29.5878H156.211C155.692 30.7736 154.655 31.4774 153.061 31.4774Z" fill="white"/>
<path d="M190.902 30.7835C190.622 30.7945 190.246 30.8108 189.901 30.8108C188.604 30.8108 187.789 30.4401 187.789 28.9578V20.0638H190.902V16.284H187.789V10.2805H181.896V16.284H180.042V20.0638H181.896V30.2548C181.896 34.3312 184.416 35.4801 187.937 35.4801C189.28 35.4801 190.296 35.3793 190.902 35.2612V30.7835Z" fill="white"/>
<path d="M111.661 30.7918C111.42 30.8011 111.142 30.8105 110.882 30.8105C109.585 30.8105 108.769 30.4398 108.769 28.9575V20.0635H111.661V16.2837H108.769V10.2802H102.877V16.2837H100.912V20.0635H102.877V30.2545C102.877 34.3312 105.397 35.4798 108.918 35.4798C110.109 35.4798 111.041 35.4003 111.661 35.3002V30.7918Z" fill="white"/>
<path d="M124.818 23.7326C124.596 21.4721 123.187 20.0266 121.223 20.0266C118.926 20.0266 117.74 21.4721 117.332 23.7326H124.818ZM111.366 25.7337C111.366 20.0638 115.331 15.7281 121.112 15.7281C123.817 15.7281 125.967 16.6174 127.597 18.0997C129.858 20.175 130.969 23.4731 130.932 27.3272H117.295C117.666 29.8841 119.074 31.4776 121.557 31.4776C123.15 31.4776 124.188 30.7736 124.707 29.5878H130.599C130.191 31.2923 129.08 32.923 127.412 34.0718C125.818 35.1833 123.892 35.8133 121.483 35.8133C115.22 35.8133 111.366 31.4776 111.366 25.7337Z" fill="white"/>
<path d="M64.7007 21.2127C67.0725 21.2127 68.4067 19.8044 68.4067 17.6919C68.4067 15.5798 67.0355 14.2828 64.7007 14.2828H60.0682V21.2127H64.7007ZM53.9528 8.76111H64.4422C67.6661 8.76111 70.0379 9.65041 71.6686 11.2069C73.3733 12.8003 74.3369 15.061 74.3369 17.7291C74.3369 22.806 70.8162 26.4008 65.3687 26.4008H60.0682V35.2577H53.9528V8.76111Z" fill="white"/>
<path d="M22.8546 0C10.2592 0 0.048584 10.2106 0.048584 22.806C0.048584 32.4678 6.05986 40.7273 14.5435 44.05C14.3442 42.2458 14.164 39.4708 14.6225 37.5009C15.037 35.7211 17.2968 26.1648 17.2968 26.1648C17.2968 26.1648 16.6147 24.7986 16.6147 22.7789C16.6147 19.6077 18.4527 17.2402 20.7413 17.2402C22.687 17.2402 23.6268 18.701 23.6268 20.4527C23.6268 22.4094 22.381 25.335 21.7381 28.0461C21.2008 30.316 22.8764 32.1672 25.1153 32.1672C29.1686 32.1672 32.2845 27.8931 32.2845 21.7237C32.2845 16.2632 28.3609 12.4454 22.7583 12.4454C16.2692 12.4454 12.4603 17.3126 12.4603 22.3425C12.4603 24.3026 13.2154 26.4045 14.1576 27.5471C14.344 27.7729 14.3713 27.9707 14.3158 28.2012C14.1426 28.9215 13.7579 30.4706 13.6824 30.7876C13.5829 31.2051 13.3519 31.2937 12.9196 31.0926C10.0713 29.7667 8.29047 25.6023 8.29047 22.2575C8.29047 15.0634 13.5175 8.45652 23.3593 8.45652C31.2707 8.45652 37.4187 14.0941 37.4187 21.6282C37.4187 29.488 32.4632 35.8136 25.5845 35.8136C23.2735 35.8136 21.101 34.6128 20.3573 33.1947C20.3573 33.1947 19.2138 37.549 18.9365 38.6162C18.4217 40.5971 17.0317 43.0801 16.102 44.5948C18.2358 45.2556 20.5035 45.6119 22.8546 45.6119C35.4501 45.6119 45.6605 35.4012 45.6605 22.806C45.6605 10.2106 35.4501 0 22.8546 0Z" fill="white"/>
</svg>
