<svg width="116" height="49" viewBox="0 0 116 49" fill="none" xmlns="http://www.w3.org/2000/svg">
<path fill-rule="evenodd" clip-rule="evenodd" d="M115.673 24.8697C115.673 16.6441 111.688 10.1536 104.073 10.1536C96.4259 10.1536 91.7992 16.6441 91.7992 24.8054C91.7992 34.477 97.2612 39.3607 105.101 39.3607C108.925 39.3607 111.817 38.4933 114.002 37.2723V30.8461C111.817 31.9386 109.31 32.6133 106.13 32.6133C103.013 32.6133 100.249 31.5209 99.8962 27.7294H115.608C115.608 27.3117 115.673 25.6408 115.673 24.8697ZM99.7999 21.8172C99.7999 18.1864 102.017 16.6763 104.041 16.6763C106.001 16.6763 108.09 18.1864 108.09 21.8172H99.7999Z" fill="white"/>
<path fill-rule="evenodd" clip-rule="evenodd" d="M79.3964 10.1536C76.2474 10.1536 74.2231 11.6317 73.0987 12.6599L72.6809 10.6677H65.6121V48.1326L73.6449 46.4299L73.6769 37.3365C74.8338 38.1721 76.5368 39.3607 79.3643 39.3607C85.1158 39.3607 90.3532 34.734 90.3532 24.5484C90.3208 15.2303 85.0192 10.1536 79.3964 10.1536ZM77.4684 32.292C75.5728 32.292 74.4481 31.6173 73.6769 30.7818L73.6449 18.8612C74.4802 17.9294 75.637 17.2867 77.4684 17.2867C80.3924 17.2867 82.4167 20.5641 82.4167 24.7733C82.4167 29.0789 80.4245 32.292 77.4684 32.292Z" fill="white"/>
<path fill-rule="evenodd" clip-rule="evenodd" d="M54.5589 8.25771L62.6238 6.52263V0L54.5589 1.70295V8.25771Z" fill="white"/>
<path d="M62.6238 10.6994H54.5589V38.8142H62.6238V10.6994Z" fill="white"/>
<path fill-rule="evenodd" clip-rule="evenodd" d="M45.9155 13.0776L45.4014 10.6999H38.4609V38.8146H46.4937V19.7609C48.3896 17.2868 51.6028 17.7366 52.5989 18.09V10.6999C51.5707 10.3143 47.8114 9.60741 45.9155 13.0776Z" fill="white"/>
<path fill-rule="evenodd" clip-rule="evenodd" d="M29.85 3.72708L22.01 5.39792L21.9778 31.135C21.9778 35.8905 25.5444 39.3928 30.2998 39.3928C32.9346 39.3928 34.8623 38.9109 35.9229 38.3323V31.8098C34.8944 32.2275 29.8178 33.7055 29.8178 28.9501V17.5435H35.9229V10.6996H29.8178L29.85 3.72708Z" fill="white"/>
<path fill-rule="evenodd" clip-rule="evenodd" d="M8.12919 18.8612C8.12919 17.6081 9.15739 17.1261 10.8603 17.1261C13.3023 17.1261 16.3869 17.8651 18.8289 19.1825V11.6316C16.162 10.5713 13.5273 10.1536 10.8603 10.1536C4.33771 10.1536 0 13.5595 0 19.2467C0 28.115 12.2099 26.7012 12.2099 30.5248C12.2099 32.0028 10.9246 32.4848 9.12527 32.4848C6.45839 32.4848 3.05246 31.3924 0.353443 29.9143V37.5614C3.34165 38.8467 6.36199 39.3932 9.12527 39.3932C15.8086 39.3932 20.4033 36.0834 20.4033 30.332C20.3712 20.7569 8.12919 22.4599 8.12919 18.8612Z" fill="white"/>
</svg>
